<svg xmlns="http://www.w3.org/2000/svg" width="11.803" height="14.514" viewBox="0 0 11.803 14.514">
  <g id="Group_66" data-name="Group 66" transform="translate(233.904 846.715)">
    <path id="Path_119" data-name="Path 119" d="M-222.1-838.259q0,2.2,0,4.393a1.541,1.541,0,0,1-1.68,1.665h-7.68a1.556,1.556,0,0,1-1.678-1.65,1.126,1.126,0,0,1,0-.17c.036-.267-.016-.424-.341-.464a.5.5,0,0,1-.417-.536q-.008-1.927,0-3.854a.562.562,0,0,1,.528-.567c.219-.013.232-.107.231-.279,0-1.757,0-3.514,0-5.271a1.661,1.661,0,0,1,.48-1.285,1.483,1.483,0,0,1,1.046-.432c1.889,0,3.779,0,5.668,0a.414.414,0,0,1,.322.133q1.691,1.7,3.391,3.382a.474.474,0,0,1,.136.378Q-222.105-840.54-222.1-838.259Zm-.939.133h-.027c0-1.407-.007-2.815.006-4.222,0-.262-.046-.362-.333-.346-.509.028-1.02.011-1.53.01a1.088,1.088,0,0,1-1.2-1.189c0-.538-.012-1.077,0-1.615.007-.225-.061-.283-.283-.282-1.681.011-3.362.008-5.043.011-.545,0-.749.208-.75.756,0,1.747,0,3.494-.006,5.242,0,.247.055.313.309.312,2.323-.011,4.647-.007,6.97-.006.542,0,.772.23.773.773q0,1.686,0,3.372c0,.683-.193.877-.875.877h-6.687c-.485,0-.485,0-.484.471,0,.623.185.808.81.808h7.537c.628,0,.808-.18.808-.807Q-223.042-836.044-223.042-838.126Zm-6.984,1.24c0,.359.006.717,0,1.076,0,.16.039.249.213.257a3.849,3.849,0,0,0,1.152-.071,1.229,1.229,0,0,0,.948-1.329,1.125,1.125,0,0,0-.886-1.185,3.583,3.583,0,0,0-1.153-.047c-.208.017-.29.089-.277.31C-230.011-837.547-230.026-837.216-230.026-836.886Zm-2.247.025c0,.339.018.68-.006,1.018-.018.264.109.277.318.285.233.008.3-.079.273-.292a.794.794,0,0,1,0-.141c.005-.159-.04-.351.033-.467s.279-.031.425-.051a.881.881,0,0,0,.834-.844.8.8,0,0,0-.761-.826,3.324,3.324,0,0,0-.873,0c-.182.014-.258.079-.247.278C-232.259-837.559-232.273-837.209-232.273-836.86Zm4.952-.01c0,.367,0,.735,0,1.1,0,.07-.023.149.072.193a.351.351,0,0,0,.533-.332c0-.225-.07-.513.041-.659s.423-.033.645-.055a.233.233,0,0,1,.056,0c.186.029.193-.087.186-.222s.039-.276-.181-.263a5.3,5.3,0,0,1-.593,0c-.262-.015-.13-.223-.149-.346s-.046-.257.16-.247.416-.011.622.006.213-.083.209-.237,0-.275-.217-.265c-.386.017-.773.011-1.159,0-.168,0-.234.045-.229.223C-227.312-837.606-227.32-837.238-227.32-836.871Z" fill="#fff"/>
    <path id="Path_120" data-name="Path 120" d="M-154.925-687.822c0-.217.01-.435,0-.651-.011-.181.067-.222.231-.223a.763.763,0,0,1,.852.858.824.824,0,0,1-.894.9c-.153,0-.193-.064-.188-.2C-154.919-687.368-154.924-687.6-154.925-687.822Z" transform="translate(-74.498 -149.061)" fill="#fff"/>
    <path id="Path_121" data-name="Path 121" d="M-195.025-688.334c.069-.145-.139-.429.238-.413.312.014.472.137.465.4s-.178.391-.474.405C-195.151-687.925-194.961-688.193-195.025-688.334Z" transform="translate(-36.675 -149.013)" fill="#fff"/>
  </g>
</svg>
