<svg xmlns="http://www.w3.org/2000/svg" width="14" height="12.577" viewBox="0 0 14 12.577">
  <g id="Group_67" data-name="Group 67" transform="translate(159.301 927.095)">
    <path id="Path_112" data-name="Path 112" d="M-145.989-926.643c-.229-.118-.462-.231-.7-.333a1.11,1.11,0,0,0-1.55.587q-.255.53-.508,1.061t-.5,1.067a.862.862,0,0,1-.071.128l-.381.8v0a.943.943,0,0,1-.067.153c-.029.055-.057.111-.085.166l-.007.014c-.185.368-.356.744-.531,1.118l-.075.16-.015.031c-.071.163-.1.325.1.419.222.1.315-.062.393-.231.025-.054.05-.106.075-.159.479-1.005.963-2.007,1.431-3.016.1-.207.183-.255.392-.146.448.231.906.441,1.363.651.154.071.206.137.12.316q-1.509,3.155-3,6.319c-.093.2-.188.187-.35.106-.451-.223-.905-.443-1.365-.649-.191-.085-.226-.166-.128-.362.286-.564.546-1.141.818-1.713.083-.176.175-.374-.055-.487s-.335.072-.419.252c-.331.7-.664,1.4-.992,2.1a.848.848,0,0,0-.087.3c-.055.808-.116,1.616-.143,2.425-.01.3-.08.4-.4.4-1.985-.016-3.971-.008-5.956-.008h-.247c-.181,0-.379-.008-.384.246,0,.278.209.263.4.265h.212q3.031,0,6.062,0a.657.657,0,0,1,.409.059c.227.155.418.065.6-.1q1.016-.951,2.04-1.895a1.6,1.6,0,0,0,.364-.51q.7-1.5,1.414-2.986c.256-.538.514-1.074.78-1.633h0l.331-.7v0a.788.788,0,0,1,.051-.125q.154-.311.3-.624l.058-.121q.242-.5.477-1l.016-.034.339-.723A1.116,1.116,0,0,0-145.989-926.643Zm-5.829,11.3c.023-.231.046-.461.071-.712.179.076.471.106.455.258C-151.317-915.582-151.589-915.471-151.818-915.342Zm1.163-.974a.194.194,0,0,1-.277.042,1.467,1.467,0,0,0-.19-.09c-.615-.291-.689-.453-.561-1.12.035-.185.118-.128.216-.082q.538.253,1.076.508c.1.049.2.106.329.172C-150.27-916.687-150.466-916.5-150.656-916.316Zm4.231-8.294c-.508-.237-1.012-.481-1.521-.717-.137-.063-.161-.134-.087-.269.111-.205.2-.425.3-.631a.538.538,0,0,1,.732-.291,7.367,7.367,0,0,1,.857.4.579.579,0,0,1,.309.586,4.822,4.822,0,0,1-.415.919C-146.3-924.512-146.372-924.586-146.425-924.61Z" fill="#fff"/>
    <path id="Path_113" data-name="Path 113" d="M-156.169-811.764h2.6a1.836,1.836,0,0,1,.281.009.259.259,0,0,1,.24.259.259.259,0,0,1-.237.263,1.476,1.476,0,0,1-.28.013H-158.8c-.047,0-.094,0-.141,0-.19-.008-.367-.049-.355-.289.011-.211.171-.256.351-.255h2.779Z" transform="translate(-0.002 -107.199)" fill="#fff"/>
    <path id="Path_114" data-name="Path 114" d="M-156.19-784.837c.916,0,1.832,0,2.748,0,.205,0,.407.022.4.274-.007.228-.207.25-.393.25q-2.73,0-5.46,0c-.19,0-.407,0-.394-.274.012-.243.2-.248.388-.247Q-157.546-784.835-156.19-784.837Z" transform="translate(-0.01 -132.228)" fill="#fff"/>
    <path id="Path_115" data-name="Path 115" d="M-157.291-838.029q-.811,0-1.621,0c-.192,0-.369-.032-.374-.268s.183-.273.369-.273q1.621,0,3.243,0c.2,0,.367.058.358.289-.008.209-.171.254-.353.254C-156.21-838.031-156.75-838.029-157.291-838.029Z" transform="translate(-0.014 -82.282)" fill="#fff"/>
  </g>
</svg>
