<svg xmlns="http://www.w3.org/2000/svg" width="13.973" height="13.094" viewBox="0 0 13.973 13.094">
  <g id="Group_70" data-name="Group 70" transform="translate(264.817 813.134)">
    <path id="Path_122" data-name="Path 122" d="M-254.043-801.783c-.891,0-1.783.005-2.674,0-.187,0-.254.042-.245.239.016.336.008.673,0,1.01a.45.45,0,0,1-.586.486q-3.409-.643-6.818-1.287c-.338-.064-.453-.2-.453-.534q0-4.708,0-9.415c0-.341.112-.478.445-.541q3.422-.648,6.845-1.292a.445.445,0,0,1,.568.479,8.091,8.091,0,0,1-.006.927c-.029.293.086.335.346.333,1.719-.011,3.439-.006,5.158-.006.484,0,.616.131.616.609q0,4.2,0,8.406c0,.448-.14.591-.579.591Zm2.328-4.807c0-1.191-.008-2.383.006-3.575,0-.271-.049-.365-.346-.361-1.446.018-2.892.008-4.338.008-.564,0-.553,0-.569.565-.007.241.049.32.307.316,1.182-.015,2.365-.008,3.547-.006.331,0,.534.186.517.461-.015.254-.2.409-.513.41q-1.624,0-3.247,0c-.608,0-.595,0-.612.605-.007.243.08.276.294.274,1.173-.01,2.347-.005,3.52,0,.363,0,.567.165.559.447s-.2.424-.554.424h-3.247c-.566,0-.555,0-.571.564-.007.238.044.322.305.318,1.182-.016,2.365-.008,3.547-.006.312,0,.5.151.519.4.02.275-.183.465-.512.465q-1.624,0-3.247,0c-.61,0-.6,0-.613.6-.007.241.076.278.292.276,1.173-.01,2.347-.005,3.52,0,.365,0,.567.163.561.445s-.2.426-.552.426h-3.193c-.626,0-.618,0-.626.617,0,.192.031.265.248.264q2.374-.016,4.748,0c.2,0,.257-.052.255-.256C-251.721-804.134-251.716-805.362-251.716-806.59Zm-9.176-.044c.057.139.088.211.116.284q.383,1.017.765,2.035a.438.438,0,0,0,.492.339.439.439,0,0,0,.381-.434c.142-1.263.286-2.525.427-3.788a.458.458,0,0,0-.4-.571c-.256-.017-.434.17-.47.488-.072.633-.146,1.267-.22,1.9-.244-.518-.447-1.039-.638-1.565a.449.449,0,0,0-.457-.35.441.441,0,0,0-.436.341q-.263.728-.545,1.45c-.032.081-.026.2-.141.243-.06-.407-.117-.8-.176-1.2a.448.448,0,0,0-.489-.435.446.446,0,0,0-.379.537q.21,1.5.433,2.99a.438.438,0,0,0,.5.395.509.509,0,0,0,.384-.381C-261.477-805.092-261.2-805.828-260.892-806.633Z" transform="translate(0 0)" fill="#fff"/>
  </g>
</svg>
