<svg xmlns="http://www.w3.org/2000/svg" width="13.973" height="13.094" viewBox="0 0 13.973 13.094">
  <g id="Group_74" data-name="Group 74" transform="translate(241.317 809.117)">
    <path id="Path_123" data-name="Path 123" d="M-230.537-797.767c-.891,0-1.783.007-2.674-.005-.212,0-.26.063-.251.261.016.336.009.673,0,1.009a.446.446,0,0,1-.579.467q-3.423-.644-6.845-1.291a.455.455,0,0,1-.433-.524q0-4.721,0-9.443a.451.451,0,0,1,.438-.519q3.422-.647,6.845-1.291a.444.444,0,0,1,.574.471c.006.337.014.674,0,1.01-.011.205.051.257.256.256,1.747-.008,3.493-.005,5.24,0,.5,0,.623.128.623.63q0,4.189,0,8.378c0,.462-.136.6-.6.6Zm2.321-4.8c0-1.219-.006-2.437.005-3.656,0-.222-.047-.289-.28-.287-1.437.012-2.874.006-4.311.006-.673,0-.667,0-.661.663,0,.164.04.222.212.216.363-.013.728-.01,1.091,0a.43.43,0,0,1,.447.421.432.432,0,0,1-.448.447c-.218.008-.436,0-.655,0-.666,0-.661,0-.647.677,0,.151.04.206.2.2q.559-.015,1.118,0a.426.426,0,0,1,.433.434.43.43,0,0,1-.434.433c-.218.01-.436,0-.655,0-.673,0-.667,0-.661.663,0,.164.04.222.212.216.363-.013.728-.01,1.091,0a.43.43,0,0,1,.447.421.432.432,0,0,1-.448.447c-.218.008-.436,0-.655,0-.666,0-.661,0-.647.677,0,.151.04.206.2.2.363-.011.728-.009,1.091,0a.432.432,0,0,1,.461.435.434.434,0,0,1-.461.434c-.218.006-.436,0-.655,0-.637,0-.63,0-.634.636,0,.188.045.245.24.244q2.387-.012,4.774,0c.2,0,.238-.062.237-.246C-228.219-800.108-228.216-801.335-228.216-802.563Zm-10.526-2.19a.452.452,0,0,0-.351.263.434.434,0,0,0,.1.5c.328.378.646.765.994,1.123.171.176.13.284,0,.445-.339.415-.664.842-.991,1.267-.2.26-.187.508.027.672a.441.441,0,0,0,.66-.135c.309-.393.626-.78.918-1.186.127-.177.19-.144.309,0,.34.4.691.8,1.039,1.193.225.256.479.3.686.116s.2-.436-.032-.7c-.389-.445-.772-.9-1.172-1.33a.216.216,0,0,1-.007-.34c.407-.512.808-1.03,1.208-1.547.211-.273.2-.528-.028-.692s-.453-.1-.657.155c-.365.465-.734.926-1.087,1.4-.118.159-.184.174-.314.014-.275-.338-.571-.66-.855-.991A.549.549,0,0,0-238.741-804.753Z" transform="translate(0)" fill="#fff"/>
    <path id="Path_124" data-name="Path 124" d="M-48.455-744.383c-.136,0-.272.006-.407,0a.433.433,0,0,1-.438-.427.428.428,0,0,1,.423-.44c.3-.012.6-.012.9,0a.428.428,0,0,1,.424.439.433.433,0,0,1-.437.427C-48.147-744.376-48.3-744.383-48.455-744.383Z" transform="translate(-181.535 -60.372)" fill="#fff"/>
    <path id="Path_125" data-name="Path 125" d="M-48.43-712.4c-.154,0-.308.009-.461,0a.431.431,0,0,1-.408-.428.423.423,0,0,1,.4-.435c.316-.015.634-.016.95,0a.422.422,0,0,1,.394.439.431.431,0,0,1-.413.423C-48.122-712.388-48.276-712.4-48.43-712.4Z" transform="translate(-181.535 -90.611)" fill="#fff"/>
    <path id="Path_126" data-name="Path 126" d="M-48.437-681.2c.154,0,.308-.009.461,0a.432.432,0,0,1,.419.444.425.425,0,0,1-.415.42c-.307.012-.616.013-.923,0a.424.424,0,0,1-.406-.428.431.431,0,0,1,.4-.434C-48.745-681.215-48.591-681.2-48.437-681.2Z" transform="translate(-181.536 -120.926)" fill="#fff"/>
    <path id="Path_127" data-name="Path 127" d="M-48.433-648.39c-.154,0-.309.01-.461,0a.431.431,0,0,1-.4-.43.424.424,0,0,1,.4-.432c.307-.015.616-.014.923,0a.426.426,0,0,1,.419.444.431.431,0,0,1-.416.42C-48.124-648.382-48.279-648.39-48.433-648.39Z" transform="translate(-181.536 -151.124)" fill="#fff"/>
  </g>
</svg>
