<svg xmlns="http://www.w3.org/2000/svg" width="14.326" height="14.326" viewBox="0 0 14.326 14.326">
  <g id="Group_78" data-name="Group 78" transform="translate(224.813 838.162)">
    <path id="Path_128" data-name="Path 128" d="M-210.487-830.986a7.167,7.167,0,0,1-7.176,7.15,7.167,7.167,0,0,1-7.15-7.176,7.167,7.167,0,0,1,7.176-7.15A7.167,7.167,0,0,1-210.487-830.986Zm-1.2-.22a5.984,5.984,0,0,0-6.6-5.728,5.992,5.992,0,0,0-5.3,6.576,5.976,5.976,0,0,0,6.58,5.291A5.972,5.972,0,0,0-211.687-831.206Z" transform="translate(0 0)" fill="#fff"/>
    <path id="Path_129" data-name="Path 129" d="M-117.886-752.536c0-.68,0-1.36,0-2.041a.417.417,0,0,1,.2-.427c.183-.1.322-.009.46.091q1.412,1.025,2.822,2.054c.284.208.29.453.011.658-.953.7-1.912,1.391-2.869,2.085a.384.384,0,0,1-.441.057.383.383,0,0,1-.18-.38C-117.884-751.138-117.886-751.837-117.886-752.536Z" transform="translate(-100.941 -78.463)" fill="#fff"/>
  </g>
</svg>
